<?xml version="1.0" encoding="iso-8859-1"?>
<!-- Generator: Adobe Illustrator 19.0.0, SVG Export Plug-In . SVG Version: 6.00 Build 0)  -->
<svg version="1.1" id="Layer_1" xmlns="http://www.w3.org/2000/svg" xmlns:xlink="http://www.w3.org/1999/xlink" x="0px" y="0px"
	 viewBox="0 0 503.467 503.467" style="enable-background:new 0 0 503.467 503.467;" xml:space="preserve" width="40px" height="40px">
<g transform="translate(1 1)">
	<g>
		<polygon style="fill:#FFE079;" points="37.4,259.267 3.267,259.267 3.267,498.2 71.533,498.2 71.533,259.267 		"/>
		<polygon style="fill:#FFE079;" points="276.333,259.267 276.333,301.933 242.2,327.533 225.133,301.933 208.067,310.467 
			208.067,259.267 242.2,259.267 		"/>
		<polygon style="fill:#FFE079;" points="344.6,259.267 344.6,327.533 276.333,344.6 276.333,301.933 276.333,259.267 
			310.467,259.267 		"/>
		<polygon style="fill:#FFE079;" points="173.933,259.267 139.8,259.267 139.8,498.2 208.067,498.2 208.067,310.467 
			208.067,259.267 		"/>
		<polygon style="fill:#FFE079;" points="105.667,259.267 71.533,259.267 71.533,498.2 139.8,498.2 139.8,259.267 		"/>
		<polygon style="fill:#FFE079;" points="412.867,310.467 412.867,498.2 344.6,498.2 344.6,327.533 344.6,259.267 378.733,259.267 
			412.867,259.267 		"/>
		<polygon style="fill:#FFE079;" points="498.2,259.267 498.2,344.6 455.533,310.467 412.867,310.467 412.867,259.267 		"/>
	</g>
	<path style="fill:#7EE1E6;" d="M498.2,28.867v230.4h-85.333h-34.133H344.6h-34.133h-34.133H242.2h-34.133h-34.133H139.8h-34.133
		H71.533H37.4H3.267v-230.4c0-14.507,11.093-25.6,25.6-25.6H472.6C487.107,3.267,498.2,14.36,498.2,28.867"/>
</g>
<path style="fill:#51565F;" d="M413.867,503.467H345.6c-2.56,0-4.267-1.707-4.267-4.267V264.533h-29.867
	c-2.56,0-4.267-1.707-4.267-4.267c0-2.56,1.707-4.267,4.267-4.267H345.6c2.56,0,4.267,1.707,4.267,4.267v234.667H409.6V345.6
	c0-2.56,1.707-4.267,4.267-4.267s4.267,1.707,4.267,4.267v153.6C418.133,501.76,416.427,503.467,413.867,503.467z M209.067,503.467
	H140.8c-2.56,0-4.267-1.707-4.267-4.267V264.533h-29.867c-2.56,0-4.267-1.707-4.267-4.267c0-2.56,1.707-4.267,4.267-4.267H140.8
	c2.56,0,4.267,1.707,4.267,4.267v234.667H204.8V345.6c0-2.56,1.707-4.267,4.267-4.267s4.267,1.707,4.267,4.267v153.6
	C213.333,501.76,211.627,503.467,209.067,503.467z M106.667,503.467H72.533c-2.56,0-4.267-1.707-4.267-4.267V264.533H38.4
	c-2.56,0-4.267-1.707-4.267-4.267c0-2.56,1.707-4.267,4.267-4.267h34.133c2.56,0,4.267,1.707,4.267,4.267v234.667h29.867
	c2.56,0,4.267,1.707,4.267,4.267C110.933,501.76,109.227,503.467,106.667,503.467z M38.4,503.467H4.267
	C1.707,503.467,0,501.76,0,499.2V29.867C0,13.653,13.653,0,29.867,0H473.6c16.213,0,29.867,13.653,29.867,29.867v230.4
	c0,2.56-1.707,4.267-4.267,4.267H448c-2.56,0-4.267-1.707-4.267-4.267c0-2.56,1.707-4.267,4.267-4.267h46.933V29.867
	c0-11.947-9.387-21.333-21.333-21.333H29.867c-11.947,0-21.333,9.387-21.333,21.333v465.067H38.4c2.56,0,4.267,1.707,4.267,4.267
	C42.667,501.76,40.96,503.467,38.4,503.467z M379.733,469.333c-2.56,0-4.267-1.707-4.267-4.267v-85.333
	c0-2.56,1.707-4.267,4.267-4.267c2.56,0,4.267,1.707,4.267,4.267v85.333C384,467.627,382.293,469.333,379.733,469.333z
	 M174.933,469.333c-2.56,0-4.267-1.707-4.267-4.267v-85.333c0-2.56,1.707-4.267,4.267-4.267c2.56,0,4.267,1.707,4.267,4.267v85.333
	C179.2,467.627,177.493,469.333,174.933,469.333z M106.667,469.333c-2.56,0-4.267-1.707-4.267-4.267v-85.333
	c0-2.56,1.707-4.267,4.267-4.267s4.267,1.707,4.267,4.267v85.333C110.933,467.627,109.227,469.333,106.667,469.333z M38.4,469.333
	c-2.56,0-4.267-1.707-4.267-4.267v-85.333c0-2.56,1.707-4.267,4.267-4.267s4.267,1.707,4.267,4.267v85.333
	C42.667,467.627,40.96,469.333,38.4,469.333z M277.333,349.867c-0.853,0-1.707,0-2.56-0.853s-1.707-1.707-1.707-3.413v-81.067H243.2
	c-2.56,0-4.267-1.707-4.267-4.267c0-2.56,1.707-4.267,4.267-4.267h34.133c2.56,0,4.267,1.707,4.267,4.267v80.213l29.013-6.827
	c2.56-0.853,4.267,0.853,5.12,3.413c0.853,2.56-0.853,4.267-3.413,5.12l-34.133,8.533
	C278.187,349.867,277.333,349.867,277.333,349.867z M499.2,349.867c-0.853,0-1.707,0-2.56-0.853l-41.813-33.28h-40.96
	c-2.56,0-4.267-1.707-4.267-4.267v-46.933h-29.867c-2.56,0-4.267-1.707-4.267-4.267c0-2.56,1.707-4.267,4.267-4.267h34.133
	c2.56,0,4.267,1.707,4.267,4.267V307.2h38.4c0.853,0,1.707,0,2.56,0.853l35.84,29.013V294.4c0-2.56,1.707-4.267,4.267-4.267
	c2.56,0,4.267,1.707,4.267,4.267v51.2c0,1.707-0.853,3.413-2.56,4.267C500.053,349.867,500.053,349.867,499.2,349.867z
	 M379.733,349.867c-2.56,0-4.267-1.707-4.267-4.267v-17.067c0-2.56,1.707-4.267,4.267-4.267c2.56,0,4.267,1.707,4.267,4.267V345.6
	C384,348.16,382.293,349.867,379.733,349.867z M174.933,349.867c-2.56,0-4.267-1.707-4.267-4.267v-17.067
	c0-2.56,1.707-4.267,4.267-4.267c2.56,0,4.267,1.707,4.267,4.267V345.6C179.2,348.16,177.493,349.867,174.933,349.867z
	 M106.667,349.867c-2.56,0-4.267-1.707-4.267-4.267v-17.067c0-2.56,1.707-4.267,4.267-4.267s4.267,1.707,4.267,4.267V345.6
	C110.933,348.16,109.227,349.867,106.667,349.867z M38.4,349.867c-2.56,0-4.267-1.707-4.267-4.267v-17.067
	c0-2.56,1.707-4.267,4.267-4.267s4.267,1.707,4.267,4.267V345.6C42.667,348.16,40.96,349.867,38.4,349.867z M243.2,332.8
	c-1.707,0-2.56-0.853-3.413-1.707l-15.36-22.187l-13.653,6.827c-1.707,0.853-2.56,0.853-4.267,0
	c-0.853-0.853-1.707-2.56-1.707-3.413v-46.933h-29.867c-2.56,0-4.267-1.707-4.267-4.267c0-2.56,1.707-4.267,4.267-4.267h34.133
	c2.56,0,4.267,1.707,4.267,4.267v44.373l11.093-5.12c1.707-0.853,4.267,0,5.12,1.707l17.067,25.6
	c1.707,1.707,0.853,4.267-0.853,5.973C244.907,332.8,244.053,332.8,243.2,332.8z M328.533,162.133h-153.6
	c-2.56,0-4.267-1.707-4.267-4.267c0-2.56,1.707-4.267,4.267-4.267h153.6c2.56,0,4.267,1.707,4.267,4.267
	C332.8,160.427,331.093,162.133,328.533,162.133z M362.667,128H294.4c-2.56,0-4.267-1.707-4.267-4.267
	c0-2.56,1.707-4.267,4.267-4.267h68.267c2.56,0,4.267,1.707,4.267,4.267C366.933,126.293,365.227,128,362.667,128z M260.267,128
	H140.8c-2.56,0-4.267-1.707-4.267-4.267c0-2.56,1.707-4.267,4.267-4.267h119.467c2.56,0,4.267,1.707,4.267,4.267
	C264.533,126.293,262.827,128,260.267,128z M277.333,93.867h-51.2c-2.56,0-4.267-1.707-4.267-4.267c0-2.56,1.707-4.267,4.267-4.267
	h51.2c2.56,0,4.267,1.707,4.267,4.267C281.6,92.16,279.893,93.867,277.333,93.867z"/>
<g>
</g>
<g>
</g>
<g>
</g>
<g>
</g>
<g>
</g>
<g>
</g>
<g>
</g>
<g>
</g>
<g>
</g>
<g>
</g>
<g>
</g>
<g>
</g>
<g>
</g>
<g>
</g>
<g>
</g>
</svg>
